<?xml version="1.0" encoding="utf-8"?>
<!-- Generator: Adobe Illustrator 26.1.0, SVG Export Plug-In . SVG Version: 6.00 Build 0)  -->
<svg version="1.1" id="Layer_1" xmlns="http://www.w3.org/2000/svg" xmlns:xlink="http://www.w3.org/1999/xlink" x="0px" y="0px"
	 viewBox="0 0 350.2 350.2" style="enable-background:new 0 0 350.2 350.2;" xml:space="preserve">
<style type="text/css">
	.st0{fill:#FFFFFF;}
	.st1{fill:#CAE4F4;}
	.st2{fill:#73BEE4;}
	.st3{fill:#0082CA;}
	.st4{fill:#12284C;}
	.st5{fill:#008ECF;}
	.st6{fill:#4FB2DF;}
</style>
<g>
	<path class="st0" d="M1048.1,640.1c0,60.8-31,114.3-78,145.7c-27.8,18.6-61.2,29.4-97.1,29.4c-36.3,0-70-11.1-98-30
		c-46.5-31.4-77.1-84.7-77.1-145.1c0-96.7,78.4-175.1,175.1-175.1C969.7,465,1048.1,543.4,1048.1,640.1z"/>
	<path class="st1" d="M970.6,785.8c-27.8,18.6-61.2,29.4-97.1,29.4c-36.3,0-70-11.1-98-30l63.5-80.1c10.9,3,22.2,4.7,33.5,4.8
		c12.2,0.1,24.5-1.6,36.2-5L970.6,785.8z"/>
	<path class="st2" d="M989.4,643.4c-17.5,30-47.4,52.2-80.7,61.5c-11.8,3.3-24,5.1-36.2,5c-11.3-0.1-22.6-1.7-33.5-4.8
		c-34.3-9.4-64.8-32.4-82.4-63.4c19.1-52.8,74.9-74,122.4-74.1C926.6,567.5,975.3,598,989.4,643.4z"/>
	<circle class="st3" cx="873" cy="638.7" r="57.4"/>
	<path class="st4" d="M892.1,619.6c10.5,10.5,10.5,27.6,0,38.1c-10.5,10.5-27.6,10.5-38.1,0c-10.5-10.5-10.5-27.6,0-38.1
		C864.5,609.1,881.6,609.1,892.1,619.6z"/>
</g>
<g>
	<g>
		<path class="st0" d="M350.2,175.1c0,60.8-31,114.3-78,145.7c-27.8,18.6-61.2,29.4-97.1,29.4c-36.3,0-70-11.1-98-30
			C30.6,288.8,0,235.5,0,175.1C0,78.4,78.4,0,175.1,0C271.8,0,350.2,78.4,350.2,175.1z"/>
	</g>
	<g>
		<path class="st5" d="M88.7,82.2c-10.1,41.5-6.7,86.1,9.4,125.6c16.1,39.5,45,73.7,81.2,96.2V84.7c-10.4,11.8-24.1,16.2-39.9,16
			C123.9,100.6,99,94.2,88.7,82.2z"/>
		<path class="st6" d="M270.7,82.2c10.1,41.5,6.7,86.1-9.4,125.6c-16.1,39.5-45,73.7-81.2,96.2V84.7c10.4,11.8,24.1,16.2,39.9,16
			C235.6,100.6,260.5,94.2,270.7,82.2z"/>
	</g>
</g>
</svg>
