<?xml version="1.0" encoding="utf-8"?>
<!-- Generator: Adobe Illustrator 26.1.0, SVG Export Plug-In . SVG Version: 6.00 Build 0)  -->
<svg version="1.1" id="Layer_1" xmlns="http://www.w3.org/2000/svg" xmlns:xlink="http://www.w3.org/1999/xlink" x="0px" y="0px"
	 viewBox="0 0 350.2 350.2" style="enable-background:new 0 0 350.2 350.2;" xml:space="preserve">
<style type="text/css">
	.st0{fill:#FFFFFF;}
	.st1{fill:#CAE4F4;}
	.st2{fill:#73BEE4;}
	.st3{fill:#0082CA;}
	.st4{fill:#12284C;}
	.st5{fill:#008ECF;}
	.st6{fill:#4FB2DF;}
</style>
<g>
	<path class="st0" d="M350.2,175.1c0,60.8-31,114.3-78,145.7c-27.8,18.6-61.2,29.4-97.1,29.4c-36.3,0-70-11.1-98-30
		C30.6,288.8,0,235.5,0,175.1C0,78.4,78.4,0,175.1,0C271.8,0,350.2,78.4,350.2,175.1z"/>
	<path class="st1" d="M272.6,320.8c-27.8,18.6-61.2,29.4-97.1,29.4c-36.3,0-70-11.1-98-30L141,240c10.9,3,22.2,4.7,33.5,4.8
		c12.2,0.1,24.5-1.6,36.2-5L272.6,320.8z"/>
	<path class="st2" d="M291.5,178.3c-17.5,30-47.4,52.2-80.7,61.5c-11.8,3.3-24,5.1-36.2,5c-11.3-0.1-22.6-1.7-33.5-4.8
		c-34.3-9.4-64.8-32.4-82.4-63.4c19.1-52.8,74.9-74,122.4-74.1C228.6,102.5,277.4,133,291.5,178.3z"/>
	<circle class="st3" cx="175.1" cy="173.7" r="57.4"/>
	<path class="st4" d="M194.1,154.6c10.5,10.5,10.5,27.6,0,38.1c-10.5,10.5-27.6,10.5-38.1,0c-10.5-10.5-10.5-27.6,0-38.1
		C166.6,144.1,183.6,144.1,194.1,154.6z"/>
</g>
<g>
	<g>
		<path class="st0" d="M350.2,815.2c0,60.8-31,114.3-78,145.7c-27.8,18.6-61.2,29.4-97.1,29.4c-36.3,0-70-11.1-98-30
			C30.6,928.9,0,875.6,0,815.2c0-96.7,78.4-175.1,175.1-175.1C271.8,640.1,350.2,718.5,350.2,815.2z"/>
	</g>
	<g>
		<path class="st5" d="M88.7,722.3c-10.1,41.5-6.7,86.1,9.4,125.6c16.1,39.5,45,73.7,81.2,96.2V724.8c-10.4,11.8-24.1,16.2-39.9,16
			C123.9,740.7,99,734.3,88.7,722.3z"/>
		<path class="st6" d="M270.7,722.3c10.1,41.5,6.7,86.1-9.4,125.6c-16.1,39.5-45,73.7-81.2,96.2V724.8c10.4,11.8,24.1,16.2,39.9,16
			C235.6,740.7,260.5,734.3,270.7,722.3z"/>
	</g>
</g>
</svg>
